<svg width="57" height="57" viewBox="0 0 57 57" fill="none" xmlns="http://www.w3.org/2000/svg">
<path d="M24.322 30.8391C19.7168 30.8391 15.9761 27.0756 15.9761 22.4423C15.9761 17.809 19.7168 14.0455 24.322 14.0455C26.9488 14.0455 29.2763 15.2666 30.8059 17.1567C32.7344 15.5844 34.9622 13.7779 37.2897 11.871C34.2307 8.0741 29.559 5.64874 24.322 5.64874C15.095 5.64874 7.63021 13.1757 7.63021 22.4423C7.63021 31.7256 15.1116 39.2358 24.322 39.2358C29.559 39.2358 34.2307 36.8105 37.2897 33.0135L30.8059 27.7279C29.2763 29.618 26.9488 30.8391 24.322 30.8391Z" fill="#0082DE"/>
<path d="M30.8059 27.7111C31.9696 26.2726 32.6679 24.4327 32.6679 22.4255C32.6679 20.4183 31.9696 18.5784 30.8059 17.1399C26.9821 20.2511 24.322 22.4255 24.322 22.4255L30.8059 27.7111Z" fill="#00ACE8"/>
<path d="M49.3596 22.4423C49.3596 16.4374 47.2648 10.9176 43.7735 6.58543C41.6288 8.34173 39.4178 10.1482 37.2897 11.871C39.6173 14.7648 41.0137 18.4279 41.0137 22.4423C41.0137 26.44 39.6173 30.1198 37.2897 33.0135L43.7735 38.2991C47.2814 33.9669 49.3596 28.4471 49.3596 22.4423Z" fill="#00ACE8"/>
<path d="M37.3063 11.871C34.9788 13.7779 32.751 15.5844 30.8225 17.1567C31.9862 18.5952 32.6845 20.4351 32.6845 22.4423C32.6845 24.4495 31.9862 26.2894 30.8225 27.7279L37.3063 33.0135C39.6339 30.1198 41.0304 26.4567 41.0304 22.4423C41.0138 18.4279 39.6339 14.748 37.3063 11.871Z" fill="#005499"/>
<path d="M24.3449 49.2742C23.975 49.6005 23.5149 49.7546 22.9916 49.7728C22.4594 49.7546 21.9812 49.5824 21.6113 49.247C21.2324 48.8935 21.0429 48.4402 21.052 47.8873C21.052 47.3434 21.2504 46.8811 21.6203 46.5185C21.9812 46.1649 22.4413 45.9836 22.9826 45.9655C23.4969 45.9655 23.9389 46.1287 24.3269 46.4097L25.4997 45.2131C25.0396 44.8324 24.5163 44.5786 23.9119 44.4607C23.6773 44.4064 23.4247 44.3882 23.1721 44.3792H22.9826C22.9375 44.3792 22.8924 44.3792 22.8473 44.3882H22.8292C22.5766 44.3973 22.324 44.4336 22.0895 44.4879C21.4309 44.633 20.8625 44.9321 20.3753 45.3854C19.6806 46.0471 19.3198 46.8811 19.3108 47.9054C19.3017 48.9297 19.6536 49.7546 20.3483 50.3983C20.5828 50.6158 20.8354 50.788 21.1151 50.9331C21.6564 51.205 22.2609 51.341 22.9375 51.3319H22.9916C23.6683 51.3229 24.2457 51.1416 24.787 50.8606C25.0306 50.7337 25.2651 50.5705 25.4726 50.3801L24.3449 49.2742ZM51.5094 49.2742C51.1395 49.6005 50.6794 49.7546 50.1562 49.7728C49.6239 49.7546 49.1457 49.5824 48.7758 49.247C48.3969 48.8935 48.2075 48.4402 48.2165 47.8873C48.2165 47.3434 48.415 46.8811 48.7849 46.5185C49.1457 46.1649 49.6058 45.9836 50.1471 45.9655C50.6614 45.9655 51.1034 46.1287 51.4914 46.4097L52.6642 45.2131C52.2041 44.8324 51.6808 44.5786 51.0764 44.4607C50.8418 44.4064 50.5892 44.3882 50.3366 44.3792H50.1471C50.102 44.3792 50.0569 44.3792 50.0118 44.3882H49.9938C49.7412 44.3973 49.4886 44.4336 49.254 44.4879C48.5954 44.633 48.027 44.9321 47.5399 45.3854C46.8452 46.0471 46.4843 46.8811 46.4753 47.9054C46.4663 48.9297 46.8181 49.7546 47.5128 50.3983C47.7474 50.6158 48 50.788 48.2796 50.9331C48.8209 51.205 49.4254 51.341 50.102 51.3319H50.1562C50.8328 51.3229 51.4102 51.1416 51.9515 50.8606C52.1951 50.7337 52.4296 50.5705 52.6371 50.3801L51.5094 49.2742ZM29.379 51.3591C28.3596 51.3591 27.5115 51.0237 26.8349 50.3348C26.1583 49.6459 25.8245 48.821 25.8245 47.842C25.8245 46.8629 26.1583 46.038 26.8349 45.3491C27.5115 44.6602 28.3596 44.3248 29.379 44.3248C30.3985 44.3248 31.2465 44.6602 31.9232 45.3491C32.5998 46.038 32.9336 46.8629 32.9336 47.842C32.9336 48.821 32.5998 49.6459 31.9232 50.3348C31.2465 51.0237 30.3985 51.3591 29.379 51.3591ZM29.379 49.7546C29.8933 49.7546 30.2993 49.5733 30.6421 49.2108C30.9759 48.8572 31.1563 48.3858 31.1563 47.842C31.1563 47.289 30.9849 46.8267 30.6421 46.4732C30.3083 46.1196 29.8933 45.9293 29.379 45.9293C28.8648 45.9293 28.4498 46.1106 28.107 46.4732C27.7732 46.8267 27.6108 47.2981 27.6108 47.842C27.6108 48.3949 27.7732 48.8572 28.107 49.2108C28.4408 49.5733 28.8648 49.7546 29.379 49.7546ZM14.7187 51.3591C13.6992 51.3591 12.8512 51.0237 12.1745 50.3348C11.4979 49.6459 11.1641 48.821 11.1641 47.842C11.1641 46.8629 11.4979 46.038 12.1745 45.3491C12.8512 44.6602 13.6992 44.3248 14.7187 44.3248C15.7381 44.3248 16.5862 44.6602 17.2628 45.3491C17.9394 46.038 18.2733 46.8629 18.2733 47.842C18.2733 48.821 17.9394 49.6459 17.2628 50.3348C16.5862 51.0237 15.7381 51.3591 14.7187 51.3591ZM14.7187 49.7546C15.2329 49.7546 15.6389 49.5733 15.9817 49.2108C16.3155 48.8572 16.496 48.3858 16.496 47.842C16.496 47.289 16.3246 46.8267 15.9817 46.4732C15.6479 46.1196 15.2329 45.9293 14.7187 45.9293C14.2044 45.9293 13.7894 46.1106 13.4466 46.4732C13.1128 46.8267 12.9504 47.2981 12.9504 47.842C12.9504 48.3949 13.1128 48.8572 13.4466 49.2108C13.7894 49.5733 14.2135 49.7546 14.7187 49.7546ZM39.1586 44.4698H33.3757V46.0018H35.0447C35.2432 46.0018 35.3966 46.1649 35.3966 46.3553V51.2413H37.1287V46.3553C37.1287 46.1559 37.2911 46.0018 37.4806 46.0018H39.1586V44.4698ZM45.519 49.7184H42.4967C42.2982 49.7184 42.1448 49.5552 42.1448 49.3649V48.549H44.7251V47.1258H42.1448V46.3734C42.1448 46.174 42.3072 46.0199 42.4967 46.0199H45.4378V44.497H40.4036V51.2685H45.51V49.7184H45.519ZM8.03355 47.1802C6.68931 46.9264 6.53594 46.6635 6.55398 46.3825C6.58105 46.0743 6.95094 45.9202 7.46518 45.9021C8.01551 45.8839 8.66508 45.9836 9.34171 46.3462L10.4153 45.1769C9.5853 44.642 8.52073 44.361 7.43812 44.3973C5.82322 44.4517 4.7767 45.3491 4.82181 46.5729V46.591C4.85789 47.7513 5.78714 48.2771 7.30279 48.5671C8.62899 48.821 8.79138 49.0476 8.8004 49.2833V49.3014C8.80943 49.6096 8.27714 49.8181 7.68171 49.8362C6.9329 49.8634 6.06681 49.6731 5.38116 49.1564H5.37213L4.32561 50.3167L4.41583 50.3801C5.32703 51.0419 6.49083 51.3773 7.70877 51.341C9.47704 51.2775 10.5687 50.3076 10.5236 49.102V49.0838C10.4785 47.9417 9.53117 47.4703 8.03355 47.1802Z" fill="black"/>
</svg>
